<?xml version="1.0" encoding="UTF-8"?>
<svg version="1.1" xmlns="http://www.w3.org/2000/svg" width="1320" height="1000">
<path d="M0 0 C13.68520832 12.67636284 17.55228182 32.32500556 18.4375 50.2578125 C18.5753668 54.59761951 18.53855004 58.91725392 18.4375 63.2578125 C18.42493164 63.90766113 18.41236328 64.55750977 18.39941406 65.22705078 C17.75317053 93.12762627 11.87680333 120.22866974 5.4375 147.2578125 C5.17227539 148.3730127 4.90705078 149.48821289 4.63378906 150.63720703 C2.48371879 159.59777807 0.12288526 168.44265252 -2.5625 177.2578125 C-3.06546586 178.93218306 -3.56806604 180.60666351 -4.0703125 182.28125 C-10.0537451 202.12144369 -16.40377013 221.84237174 -22.9375 241.5078125 C-23.41981079 242.96175415 -23.41981079 242.96175415 -23.91186523 244.44506836 C-25.68797372 249.76119333 -27.56551331 255.02126962 -29.5625 260.2578125 C-30.20029741 261.96313863 -30.8369284 263.66890128 -31.47265625 265.375 C-36.68753288 279.33368122 -41.9939012 293.25531787 -47.36645508 307.15405273 C-48.21161931 309.3472703 -49.05215731 311.54227327 -49.8894043 313.73852539 C-50.32679932 314.88442139 -50.76419434 316.03031738 -51.21484375 317.2109375 C-51.60921631 318.24766602 -52.00358887 319.28439453 -52.40991211 320.35253906 C-53.48219297 323.05538639 -54.64130838 325.68790262 -55.875 328.3203125 C-57.3989477 331.58657844 -58.81457538 334.86234499 -60.09375 338.23046875 C-69.17434936 362.0566997 -80.75923995 385.22068612 -93.5625 407.2578125 C-93.9548584 407.93392578 -94.3472168 408.61003906 -94.75146484 409.30664062 C-100.09233631 418.45475534 -105.72119948 427.42158939 -111.5625 436.2578125 C-112.05266602 437.00111816 -112.54283203 437.74442383 -113.04785156 438.51025391 C-119.21424601 447.81683628 -125.51917614 456.75588034 -132.88671875 465.1484375 C-135.25536243 467.85694133 -137.45180282 470.67041888 -139.63378906 473.53027344 C-145.39040089 481.07271052 -151.72991325 487.68952352 -158.5625 494.2578125 C-160.79438513 496.47328671 -163.01897164 498.69087861 -165.1953125 500.9609375 C-170.2599399 506.21117952 -175.84255191 510.7428668 -181.5625 515.2578125 C-182.46742188 515.9796875 -183.37234375 516.7015625 -184.3046875 517.4453125 C-214.39510227 540.78413836 -249.58527032 554.55277927 -288.11474609 549.953125 C-292.45715778 549.18996634 -296.47894588 547.89637069 -300.5625 546.2578125 C-302.11517578 545.65646484 -302.11517578 545.65646484 -303.69921875 545.04296875 C-317.88386872 538.77702222 -327.81969057 527.28766898 -333.875 513.1953125 C-340.59495771 494.67937753 -339.23986086 471.62126052 -331.375 453.5703125 C-330.45773374 451.7889143 -329.51752809 450.01925461 -328.5625 448.2578125 C-327.90311515 446.9325447 -327.24715027 445.60557234 -326.59375 444.27734375 C-314.09824315 419.26662992 -293.54147905 397.5472455 -269.5625 383.2578125 C-268.43972656 382.56816406 -267.31695313 381.87851562 -266.16015625 381.16796875 C-236.03560111 363.18985508 -201.37687468 358.44974334 -166.9375 364.0078125 C-165.47594482 364.24310669 -165.47594482 364.24310669 -163.98486328 364.4831543 C-155.27075135 366.04701412 -144.97179312 368.25153337 -137.5625 373.2578125 C-136.6875 375.9453125 -136.6875 375.9453125 -136.5625 378.2578125 C-143.73040242 381.84176371 -155.31506113 378.69356758 -162.9375 377.7578125 C-198.82265872 373.70147514 -238.59912685 376.90722834 -268.15234375 399.96875 C-292.3991054 419.76586182 -314.55069546 449.18257869 -317.8840332 481.36181641 C-318.03307544 484.47959206 -318.08087572 487.57409995 -318.0625 490.6953125 C-318.05895508 491.78626221 -318.05541016 492.87721191 -318.05175781 494.0012207 C-317.82595253 504.96668501 -315.10312865 513.38124505 -308.5625 522.2578125 C-308.2325 523.2478125 -307.9025 524.2378125 -307.5625 525.2578125 C-306.9025 525.2578125 -306.2425 525.2578125 -305.5625 525.2578125 C-304.9025 525.9796875 -304.2425 526.7015625 -303.5625 527.4453125 C-295.76761998 535.46811299 -284.51849813 537.26384203 -273.8125 537.5078125 C-240.98068464 536.74820752 -209.96889576 520.73678504 -186.5625 498.2578125 C-185.13061416 497.02211031 -183.693336 495.79262103 -182.25 494.5703125 C-178.97542157 491.72797842 -176.33305699 488.59668888 -173.5625 485.2578125 C-172.45513821 484.27915135 -171.32880491 483.32166865 -170.1875 482.3828125 C-167.63325309 480.2665715 -165.41488049 478.06299771 -163.25 475.55078125 C-162.6410791 474.84501953 -162.0321582 474.13925781 -161.40478516 473.41210938 C-160.79683105 472.70119141 -160.18887695 471.99027344 -159.5625 471.2578125 C-159.01255371 470.61908203 -158.46260742 469.98035156 -157.89599609 469.32226562 C-149.15644182 459.1072705 -141.35796606 448.46566154 -133.91357422 437.27832031 C-132.20663433 434.72562163 -130.45479544 432.20652517 -128.6875 429.6953125 C-128.16542969 428.95023438 -127.64335938 428.20515625 -127.10546875 427.4375 C-126.01316384 425.89444649 -124.91054798 424.35866803 -123.80078125 422.828125 C-120.85740633 418.72910829 -118.14603786 414.63896641 -115.76953125 410.18359375 C-113.64738638 406.24548083 -111.4852944 402.33713932 -109.265625 398.453125 C-102.18098217 386.01966327 -95.62167619 373.49676224 -89.61914062 360.50878906 C-88.10564195 357.28456129 -86.49363028 354.11811433 -84.875 350.9453125 C-81.42103043 344.10238927 -78.38221967 337.10751938 -75.3515625 330.07080078 C-74.24749975 327.53405264 -73.09454273 325.02076467 -71.9375 322.5078125 C-66.3597104 310.28721846 -61.5191395 297.73945249 -56.5625 285.2578125 C-56.28972229 284.57156799 -56.01694458 283.88532349 -55.73590088 283.17828369 C-53.81708872 278.35091191 -51.90159615 273.52223771 -49.98919678 268.69232178 C-49.34186668 267.05827959 -48.69382356 265.42451963 -48.04498291 263.79107666 C-41.85869834 248.21177244 -35.85554525 232.56272545 -30.625 216.6328125 C-30.29709473 215.63902588 -29.96918945 214.64523926 -29.63134766 213.62133789 C-28.94804498 211.54492384 -28.26672567 209.46785606 -27.58740234 207.39013672 C-26.90337074 205.29958752 -26.21618769 203.21006688 -25.52587891 201.12158203 C-20.62785193 186.29381379 -16.32919507 171.41131638 -12.5625 156.2578125 C-12.17892329 154.73423948 -11.79484319 153.21079307 -11.41015625 151.6875 C-10.74137247 149.03422659 -10.08118117 146.37931848 -9.42578125 143.72265625 C-8.89849951 141.6063716 -8.35760203 139.49334544 -7.79296875 137.38671875 C-5.07510017 127.14020886 -3.28129249 116.71034877 -1.5625 106.2578125 C-1.40716797 105.32952637 -1.25183594 104.40124023 -1.09179688 103.44482422 C3.21835257 76.84224596 7.19399824 40.33852427 -9.12109375 17.03125 C-14.0906683 10.71885739 -19.92143494 7.66908501 -27.8125 6.3828125 C-45.34128989 5.17184256 -62.55103038 13.10433358 -77.5625 21.2578125 C-78.58859375 21.80179688 -79.6146875 22.34578125 -80.671875 22.90625 C-88.91103396 27.47118943 -96.24997564 33.13061017 -103.70410156 38.84912109 C-106.2643225 40.78980354 -108.88073211 42.64791219 -111.5 44.5078125 C-115.87812976 47.65583329 -119.85827969 51.09652035 -123.78515625 54.7890625 C-125.5625 56.2578125 -125.5625 56.2578125 -127.5625 56.2578125 C-127.5625 56.9178125 -127.5625 57.5778125 -127.5625 58.2578125 C-129.06640625 59.73828125 -129.06640625 59.73828125 -131.125 61.4453125 C-133.95700931 63.84701651 -136.65298182 66.29109128 -139.25 68.9453125 C-141.13785122 70.87151736 -142.92267464 72.53694785 -145.0625 74.1953125 C-147.97379343 76.59712958 -150.2910436 79.28011776 -152.71875 82.16015625 C-154.05590756 83.68145627 -155.45753394 85.14684956 -156.89453125 86.57421875 C-191.08267583 120.96258673 -217.80803179 166.87382752 -238.60742188 210.26953125 C-239.65906999 212.45885187 -240.72819503 214.63925866 -241.796875 216.8203125 C-250.06087221 233.81552323 -256.53357071 251.04085378 -261.5625 269.2578125 C-261.90539062 270.44632812 -262.24828125 271.63484375 -262.6015625 272.859375 C-266.30396077 287.3575514 -266.95339516 305.42622097 -260.5625 319.2578125 C-258.83626916 321.88597123 -257.04843503 324.24412041 -254.953125 326.5859375 C-253.5625 328.2578125 -253.5625 328.2578125 -253.5625 330.2578125 C-252.9025 330.2578125 -252.2425 330.2578125 -251.5625 330.2578125 C-251.5625 330.9178125 -251.5625 331.5778125 -251.5625 332.2578125 C-251.00949219 332.51949219 -250.45648437 332.78117187 -249.88671875 333.05078125 C-247.2645804 334.41253041 -244.83420913 335.93205058 -242.375 337.5703125 C-241.49457031 338.14394531 -240.61414063 338.71757812 -239.70703125 339.30859375 C-237.19336664 341.59332716 -236.85445338 342.93183384 -236.5625 346.2578125 C-238.81941644 348.34111998 -240.25066428 349.20820227 -243.3125 349.6953125 C-252.421381 348.46911698 -259.39935154 342.35320063 -264.85546875 335.2890625 C-280.03581124 313.71616199 -280.24755581 290.24173847 -276.05859375 265.01708984 C-270.69942129 235.20933042 -258.65739002 207.376461 -245.3125 180.3828125 C-244.84166992 179.42697266 -244.37083984 178.47113281 -243.88574219 177.48632812 C-241.00164421 171.75832867 -237.79072152 166.37939856 -234.29174805 161.00732422 C-232.58219011 158.28911985 -231.0445491 155.52881719 -229.53515625 152.6953125 C-226.65831604 147.32800229 -223.41771288 142.2937772 -220 137.2578125 C-219.39647705 136.3620752 -218.7929541 135.46633789 -218.17114258 134.54345703 C-216.92177258 132.69177905 -215.67006212 130.84167809 -214.41601562 128.99316406 C-212.62841689 126.35509027 -210.85229064 123.70961972 -209.078125 121.0625 C-203.93262767 113.41940623 -198.75559693 105.94249019 -192.78515625 98.91015625 C-191.1581752 96.96864459 -189.59486798 95.02240478 -188.05859375 93.01171875 C-182.45153409 85.67948938 -176.53950439 78.81733365 -170.1574707 72.14355469 C-169.58859131 71.54833008 -169.01971191 70.95310547 -168.43359375 70.33984375 C-167.67453735 69.55444214 -167.67453735 69.55444214 -166.90014648 68.75317383 C-165.34734374 67.08816173 -165.34734374 67.08816173 -163.5625 64.2578125 C-162.9025 64.2578125 -162.2425 64.2578125 -161.5625 64.2578125 C-161.2221875 63.4225 -161.2221875 63.4225 -160.875 62.5703125 C-159.18699964 59.59621662 -157.09573483 57.53772385 -154.5625 55.2578125 C-153.9025 55.2578125 -153.2425 55.2578125 -152.5625 55.2578125 C-152.2325 54.2678125 -151.9025 53.2778125 -151.5625 52.2578125 C-150.1015625 50.78515625 -150.1015625 50.78515625 -148.1875 49.1953125 C-144.77940891 46.31060682 -141.46823252 43.34939793 -138.1875 40.3203125 C-107.33213837 12.32348574 -41.1531078 -32.4200355 0 0 Z " fill="#000000" transform="translate(795.5625,112.7421875)"/>
<path d="M0 0 C5.11945997 3.99669789 8.38366608 7.33229383 9.38671875 13.86328125 C7.59790139 14.86836926 5.80557179 15.86720861 4.01171875 16.86328125 C3.01398438 17.42015625 2.01625 17.97703125 0.98828125 18.55078125 C-1.61328125 19.86328125 -1.61328125 19.86328125 -3.61328125 19.86328125 C-4.60328125 18.31640625 -4.60328125 18.31640625 -5.61328125 16.73828125 C-9.72181713 10.70998307 -16.79958496 7.13106162 -23.61328125 4.86328125 C-33.86747556 3.69370471 -42.1514253 5.78478062 -51.05078125 10.80078125 C-57.55646029 16.0370595 -60.98994061 22.47298996 -62.15625 30.6875 C-62.82135834 37.91820224 -63.10019506 44.94025093 -60.61328125 51.86328125 C-60.34386719 52.61996094 -60.07445312 53.37664063 -59.796875 54.15625 C-56.71406006 61.85683795 -52.46053964 67.68891771 -44.73828125 71.08203125 C-35.68467923 74.4105614 -26.85730006 74.85765709 -17.80078125 71.11328125 C-11.24477519 67.84698538 -6.49680646 63.70510015 -3.61328125 56.86328125 C-2.92089544 54.53745005 -2.25037039 52.20486326 -1.61328125 49.86328125 C-2.45101074 49.87375488 -3.28874023 49.88422852 -4.15185547 49.89501953 C-7.25666289 49.92908144 -10.36137517 49.95417036 -13.46630859 49.97314453 C-15.47239485 49.98816232 -17.47839449 50.01357106 -19.484375 50.0390625 C-20.74121094 50.04550781 -21.99804688 50.05195312 -23.29296875 50.05859375 C-24.45554199 50.06906738 -25.61811523 50.07954102 -26.81591797 50.09033203 C-29.61328125 49.86328125 -29.61328125 49.86328125 -31.61328125 47.86328125 C-31.87890625 45.76953125 -31.87890625 45.76953125 -31.86328125 43.36328125 C-31.87101563 42.1721875 -31.87101563 42.1721875 -31.87890625 40.95703125 C-31.61328125 38.86328125 -31.61328125 38.86328125 -29.61328125 36.86328125 C-26.55135994 36.67540436 -23.58141998 36.60781756 -20.51953125 36.6328125 C-19.61706665 36.63327072 -18.71460205 36.63372894 -17.78479004 36.63420105 C-15.87490526 36.63722485 -13.96502298 36.64511494 -12.05517578 36.6574707 C-9.12523703 36.67570684 -6.19561453 36.67798055 -3.265625 36.67773438 C-1.41275767 36.68265028 0.4401075 36.68847892 2.29296875 36.6953125 C3.17319702 36.69642532 4.05342529 36.69753815 4.96032715 36.69868469 C11.15459356 36.74721865 11.15459356 36.74721865 13.38671875 37.86328125 C13.41198765 44.68090019 13.42955119 51.49850714 13.44165039 58.31616211 C13.44669208 60.63745576 13.45352526 62.95874622 13.4621582 65.2800293 C13.474231 68.6085692 13.47994854 71.93706727 13.484375 75.265625 C13.48953629 76.31040512 13.49469757 77.35518524 13.50001526 78.43162537 C13.50009079 79.39254593 13.50016632 80.35346649 13.50024414 81.34350586 C13.50246475 82.19400009 13.50468536 83.04449432 13.50697327 83.92076111 C13.38671875 85.86328125 13.38671875 85.86328125 12.38671875 86.86328125 C10.72242824 86.96152062 9.05389944 86.99301756 7.38671875 86.98828125 C6.02546875 86.99214844 6.02546875 86.99214844 4.63671875 86.99609375 C2.38671875 86.86328125 2.38671875 86.86328125 1.38671875 85.86328125 C1.15384867 84.18144177 0.97407709 82.49203965 0.82421875 80.80078125 C0.74042969 79.88167969 0.65664063 78.96257812 0.5703125 78.015625 C0.50972656 77.30535156 0.44914063 76.59507812 0.38671875 75.86328125 C-2.31054956 77.11435464 -3.98410644 78.19878976 -6.23828125 80.23828125 C-11.88558224 85.07065526 -19.29251981 87.33086224 -26.61328125 87.86328125 C-27.25265625 87.91484375 -27.89203125 87.96640625 -28.55078125 88.01953125 C-38.4479689 88.45617188 -49.22521956 86.24258168 -57.61328125 80.86328125 C-58.28875 80.43144531 -58.96421875 79.99960937 -59.66015625 79.5546875 C-70.27811347 72.18997657 -75.24592798 61.4172679 -78.0703125 49.08984375 C-80.40357067 35.22458298 -78.06612516 20.83195888 -70.2421875 9.0078125 C-53.6142171 -12.8836881 -22.02633693 -15.0164954 0 0 Z " fill="#000000" transform="translate(628.61328125,717.13671875)"/>
<path d="M0 0 C2.35088378 1.7979621 4.41078048 3.60211249 6.375 5.81640625 C6.375 6.47640625 6.375 7.13640625 6.375 7.81640625 C7.035 7.81640625 7.695 7.81640625 8.375 7.81640625 C17.05078218 22.58488984 20.84669383 37.35210398 16.8125 54.31640625 C13.49927118 66.34506528 6.57927977 75.95828288 -4.2109375 82.34765625 C-18.18960922 89.56787107 -32.64565285 90.53995498 -47.625 85.81640625 C-58.05758137 81.92803204 -66.66642561 74.86163628 -71.625 64.81640625 C-77.70356286 51.36114676 -79.3264954 35.40633025 -74.625 21.19140625 C-69.20897588 8.40230728 -61.14317384 -0.20135846 -48.3125 -5.55859375 C-32.5533494 -11.5496758 -13.84643932 -9.21035472 0 0 Z M-52.625 13.81640625 C-54.91978324 16.67125538 -56.84991417 19.61543181 -58.625 22.81640625 C-58.98722656 23.44289063 -59.34945312 24.069375 -59.72265625 24.71484375 C-63.58294195 33.70546586 -62.75965746 45.75993543 -59.5625 54.75390625 C-56.08803194 62.69833604 -51.70098912 68.4141617 -43.71484375 72.02734375 C-32.87351021 76.12070707 -23.94143242 76.04514815 -13.28125 71.30078125 C-5.61270752 67.01541928 -1.41565477 61.01465031 1.421875 52.77734375 C4.36878426 41.79593661 4.11835256 32.01613091 -0.69140625 21.48046875 C-5.68121111 12.88417127 -13.21207532 7.84696348 -22.70703125 5.24609375 C-33.03246373 3.44536898 -45.01520064 6.56600193 -52.625 13.81640625 Z " fill="#000000" transform="translate(862.625,716.18359375)"/>
<path d="M0 0 C5.24697519 -0.04977792 10.4938101 -0.0858971 15.7409668 -0.10986328 C17.52256671 -0.11986411 19.30415044 -0.13346916 21.08569336 -0.15087891 C23.66003433 -0.17538957 26.23415657 -0.18654248 28.80859375 -0.1953125 C29.98572182 -0.21079636 29.98572182 -0.21079636 31.18663025 -0.22659302 C40.20900731 -0.2283861 47.88656125 1.07455532 54.59375 7.53515625 C60.95087178 14.37529464 62.56786957 20.91381801 62.27734375 30.17578125 C61.53174232 37.76831411 57.26701026 42.83763232 52 48 C48.45921674 50.6350015 47.51203902 51 43 51 C46.3294494 58.06731126 50.33260431 64.68897769 54.40014648 71.34667969 C55.56699401 73.25735882 56.72816284 75.17140331 57.88867188 77.0859375 C61.58915528 83.32732636 61.58915528 83.32732636 65.76147461 89.24902344 C67 91 67 91 66.6875 93.25 C66.460625 93.8275 66.23375 94.405 66 95 C63.75106046 95.10823773 61.50062425 95.18569645 59.25 95.25 C57.99703125 95.29640625 56.7440625 95.3428125 55.453125 95.390625 C52 95 52 95 49.625 93.11328125 C47.19539534 89.95362711 46 88.03307048 46 84 C45.34 84 44.68 84 44 84 C42.703125 82.19921875 42.703125 82.19921875 41.25 79.6875 C40.72019531 78.77484375 40.19039063 77.8621875 39.64453125 76.921875 C38.05794026 74.10294375 36.48899372 71.2758916 34.9375 68.4375 C34.43476563 67.53 33.93203125 66.6225 33.4140625 65.6875 C32 63 32 63 30.8984375 60.375 C29.77795576 57.85996186 28.8371809 56.05547031 27 54 C24.29984937 53.09571746 24.29984937 53.09571746 21.32421875 52.75390625 C20.32865967 52.60381104 19.33310059 52.45371582 18.30737305 52.29907227 C17.54593994 52.20037842 16.78450684 52.10168457 16 52 C16.01047363 53.1960083 16.02094727 54.3920166 16.03173828 55.62426758 C16.06791405 60.05783093 16.09089166 64.49138121 16.10986328 68.92504883 C16.11992639 70.84466749 16.13357816 72.76427081 16.15087891 74.68383789 C16.17511364 77.44160752 16.18647992 80.19917464 16.1953125 82.95703125 C16.20563507 83.81649857 16.21595764 84.67596588 16.22659302 85.56147766 C16.22674408 86.36208115 16.22689514 87.16268463 16.22705078 87.98754883 C16.231492 88.6914827 16.23593323 89.39541656 16.24050903 90.12068176 C16 92 16 92 14 95 C11.50390625 95.36328125 11.50390625 95.36328125 8.5625 95.3125 C7.59441406 95.30863281 6.62632812 95.30476562 5.62890625 95.30078125 C3 95 3 95 0 93 C-0.28606944 90.00964694 -0.37798899 87.22734562 -0.34057617 84.23583984 C-0.34101425 83.32846573 -0.34145233 82.42109161 -0.34190369 81.48622131 C-0.33980839 78.47757686 -0.31644244 75.46948498 -0.29296875 72.4609375 C-0.28737543 70.37871607 -0.28310409 68.2964907 -0.28010559 66.21426392 C-0.26863603 60.72653353 -0.23915067 55.23904031 -0.20599365 49.75140381 C-0.17533823 44.15461435 -0.16160995 38.55778667 -0.14648438 32.9609375 C-0.11428301 21.97385397 -0.06306119 10.98694669 0 0 Z M16 13 C14.97058578 16.08824265 14.87092283 18.23705582 14.8671875 21.47265625 C14.86589844 22.53677734 14.86460937 23.60089844 14.86328125 24.69726562 C14.86714844 25.80779297 14.87101562 26.91832031 14.875 28.0625 C14.87113281 29.17689453 14.86726563 30.29128906 14.86328125 31.43945312 C14.86457031 32.50228516 14.86585938 33.56511719 14.8671875 34.66015625 C14.86831543 35.63605713 14.86944336 36.61195801 14.87060547 37.61743164 C14.84236207 40.01643389 14.84236207 40.01643389 16 42 C29.36091306 42.67424822 29.36091306 42.67424822 42 39 C43.2389867 36.97168639 43.2389867 36.97168639 44 35 C44.66 35 45.32 35 46 35 C47.73984917 29.78045248 47.91699243 24.1549322 45.75 19.0625 C43.09667257 15.9353641 40.89719409 14.2990647 37 13 C35.37280518 12.91856145 33.74248281 12.8924698 32.11328125 12.90234375 C31.17548828 12.90556641 30.23769531 12.90878906 29.27148438 12.91210938 C28.29501953 12.92048828 27.31855469 12.92886719 26.3125 12.9375 C25.32443359 12.94201172 24.33636719 12.94652344 23.31835938 12.95117188 C20.87884526 12.96295697 18.43945311 12.97940989 16 13 Z " fill="#000000" transform="translate(280,709)"/>
<path d="M0 0 C5.37106359 -0.07473651 10.74181753 -0.12887661 16.11328125 -0.16479492 C17.93657715 -0.17978489 19.7598376 -0.20018384 21.58300781 -0.22631836 C46.43540515 -0.57338086 46.43540515 -0.57338086 54.46484375 7.15234375 C60.29156513 14.16516617 62.41551813 21.95637006 62 31 C60.94036046 36.98603392 58.35995937 42.69579458 54 47 C50.40348505 49.37890813 47.34952581 51 43 51 C46.01348059 58.59267134 50.12109348 65.3130419 54.5 72.1875 C55.16386719 73.24130859 55.82773437 74.29511719 56.51171875 75.38085938 C60.36117686 81.4903636 60.36117686 81.4903636 64.46875 87.42578125 C66.14322628 90.24078092 66.37858242 91.7820494 66 95 C63.93816367 95.08150744 61.87538651 95.1394194 59.8125 95.1875 C58.08966797 95.23970703 58.08966797 95.23970703 56.33203125 95.29296875 C52.59824005 94.96467527 50.89579596 94.35471298 48 92 C46.41015625 89.43359375 46.41015625 89.43359375 45.0625 86.4375 C42.82306375 81.67941026 40.400221 77.20740877 37.65625 72.7265625 C35.60089723 69.34298647 33.60464133 65.9282874 31.625 62.5 C31.26680176 61.88785645 30.90860352 61.27571289 30.53955078 60.64501953 C28 56.23148106 28 56.23148106 28 54 C26.37585622 53.80522261 24.75063577 53.61940542 23.125 53.4375 C22.22007812 53.33308594 21.31515625 53.22867188 20.3828125 53.12109375 C17.98346943 52.80325148 17.98346943 52.80325148 16 54 C15.97494385 55.17095215 15.9498877 56.3419043 15.92407227 57.54833984 C15.83006297 61.88325378 15.72982659 66.21800504 15.62768555 70.55273438 C15.58431211 72.43062542 15.54263882 74.30855652 15.50268555 76.18652344 C15.44504124 78.8822844 15.38133019 81.57784327 15.31640625 84.2734375 C15.29133751 85.53756973 15.29133751 85.53756973 15.26576233 86.82723999 C15.11387171 92.77225659 15.11387171 92.77225659 14 95 C10.04 95 6.08 95 2 95 C-0.25695155 90.4860969 -0.26916457 87.0918267 -0.22705078 82.19238281 C-0.22734283 81.30422379 -0.22763489 80.41606476 -0.22793579 79.50099182 C-0.22654357 76.56826982 -0.21098737 73.63580256 -0.1953125 70.703125 C-0.19158199 68.66860086 -0.1887352 66.63407492 -0.18673706 64.59954834 C-0.17910362 59.24671461 -0.15945755 53.89398955 -0.1373291 48.54119873 C-0.11686449 43.07826202 -0.10773402 37.61530775 -0.09765625 32.15234375 C-0.07621144 21.43484811 -0.04207892 10.71743309 0 0 Z M16 13 C14.64299353 15.71401294 14.8876139 17.84846316 14.90234375 20.8828125 C14.90556641 22.04941406 14.90878906 23.21601562 14.91210938 24.41796875 C14.92048828 25.64128906 14.92886719 26.86460937 14.9375 28.125 C14.94201172 29.35605469 14.94652344 30.58710937 14.95117188 31.85546875 C14.9629867 34.90369392 14.97945972 37.95182314 15 41 C20.71565965 43.85782982 31.11707759 42.60316719 37.125 40.875 C41.40112858 39.1806849 43.46970908 36.79543637 46 33 C47.49142111 28.52573668 47.74270548 24.68085977 45.8125 20.3125 C43.02014635 16.7498419 40.30893419 14.4363114 36 13 C34.44578271 12.91893314 32.88832973 12.89243102 31.33203125 12.90234375 C30.43935547 12.90556641 29.54667969 12.90878906 28.62695312 12.91210938 C27.69818359 12.92048828 26.76941406 12.92886719 25.8125 12.9375 C24.40194336 12.94426758 24.40194336 12.94426758 22.96289062 12.95117188 C20.64186288 12.96295374 18.32096356 12.97940442 16 13 Z " fill="#000000" transform="translate(686,709)"/>
<path d="M0 0 C1.02770508 0.0009668 1.02770508 0.0009668 2.07617188 0.00195312 C7.15614073 0.04682037 7.15614073 0.04682037 9.4375 1.1875 C10.31616211 3.13574219 10.31616211 3.13574219 11.21484375 5.734375 C11.55797607 6.71019531 11.9011084 7.68601562 12.25463867 8.69140625 C12.80921753 10.29822266 12.80921753 10.29822266 13.375 11.9375 C16.82566132 21.74231481 20.41047249 31.48069264 24.125 41.1875 C28.05121928 51.47154824 31.83048276 61.7880477 35.4375 72.1875 C38.08954579 79.71420776 38.08954579 79.71420776 41.1875 87.0625 C42.418743 90.1406075 42.54747252 91.94331075 42.4375 95.1875 C40.52114783 95.24173638 38.60435075 95.28039963 36.6875 95.3125 C35.62015625 95.33570313 34.5528125 95.35890625 33.453125 95.3828125 C30.41483836 95.18603228 28.85430409 95.01232286 26.4375 93.1875 C25.27734375 90.8671875 25.27734375 90.8671875 24.375 88.0625 C23.92447266 86.69738281 23.92447266 86.69738281 23.46484375 85.3046875 C23.12582031 84.27601563 22.78679687 83.24734375 22.4375 82.1875 C21.4475 79.5475 20.4575 76.9075 19.4375 74.1875 C6.5675 74.1875 -6.3025 74.1875 -19.5625 74.1875 C-22.22570601 80.17971353 -24.56319635 85.84246436 -26.6328125 92 C-27.5625 94.1875 -27.5625 94.1875 -29.5625 95.1875 C-31.39184565 95.33429934 -33.22750243 95.40852635 -35.0625 95.4375 C-36.0421875 95.46328125 -37.021875 95.4890625 -38.03125 95.515625 C-38.8665625 95.40734375 -39.701875 95.2990625 -40.5625 95.1875 C-42.5625 92.1875 -42.5625 92.1875 -42.26953125 90.25878906 C-42.03621094 89.57526367 -41.80289062 88.89173828 -41.5625 88.1875 C-41.25892578 87.1970166 -41.25892578 87.1970166 -40.94921875 86.18652344 C-36.55595062 72.74287752 -31.76106445 59.48479279 -26.73291016 46.26660156 C-24.76855707 41.09880407 -22.820664 35.92485719 -20.875 30.75 C-20.50052734 29.75814697 -20.12605469 28.76629395 -19.74023438 27.74438477 C-18.0219677 23.17311115 -16.3409996 18.59665533 -14.76953125 13.97265625 C-14.49906982 13.17980225 -14.2286084 12.38694824 -13.94995117 11.57006836 C-13.45746285 10.11184246 -12.97389482 8.6505595 -12.5012207 7.18579102 C-10.14859596 0.20395049 -6.78950006 -0.12204399 0 0 Z M-0.5625 17.1875 C-0.99949219 18.35410156 -1.43648438 19.52070312 -1.88671875 20.72265625 C-2.90570077 23.44053858 -3.9293355 26.15648004 -4.95703125 28.87109375 C-8.63418808 38.59461676 -12.13702535 48.37266483 -15.5625 58.1875 C-12.09214175 60.33267925 -9.51464122 60.36162457 -5.484375 60.1640625 C-4.32421875 60.1125 -3.1640625 60.0609375 -1.96875 60.0078125 C-0.7621875 59.94335938 0.444375 59.87890625 1.6875 59.8125 C2.90953125 59.75578125 4.1315625 59.6990625 5.390625 59.640625 C8.4068502 59.49923944 11.4222323 59.34783265 14.4375 59.1875 C13.92036609 55.72193553 13.35228312 52.54086439 12.01953125 49.296875 C11.73730713 48.59546387 11.45508301 47.89405273 11.16430664 47.17138672 C10.86258545 46.4342041 10.56086426 45.69702148 10.25 44.9375 C6.59710883 35.80574857 3.45710129 26.54494575 0.4375 17.1875 C0.1075 17.1875 -0.2225 17.1875 -0.5625 17.1875 Z " fill="#000000" transform="translate(419.5625,708.8125)"/>
<path d="M0 0 C2.47923801 -0.02685095 4.9581884 -0.04676547 7.4375 -0.0625 C8.14455078 -0.07087891 8.85160156 -0.07925781 9.58007812 -0.08789062 C11.38693559 -0.09653588 13.19387603 -0.05220011 15 0 C16 1 16 1 16.11352539 3.25486755 C16.10828857 4.25284866 16.10305176 5.25082977 16.09765625 6.27905273 C16.09435303 7.4079039 16.0910498 8.53675507 16.08764648 9.69981384 C16.07934814 10.93196121 16.0710498 12.16410858 16.0625 13.43359375 C16.05871338 14.69583267 16.05492676 15.95807159 16.05102539 17.25856018 C16.03669315 22.00076018 16.01365499 26.74288769 15.98962402 31.48504639 C15.96658129 36.1137203 15.95129171 40.74238108 15.9375 45.37109375 C15.92920166 46.58502304 15.92090332 47.79895233 15.91235352 49.04966736 C15.46174061 64.0440004 15.46174061 64.0440004 22 77 C26.37726773 80.88575249 31.26203684 81.71310184 37 82 C40.19500037 81.36584084 43.00614292 80.2508987 46 79 C46.70253906 78.88269531 47.40507813 78.76539063 48.12890625 78.64453125 C50.15707395 78.17516382 50.15707395 78.17516382 51.01724243 76.23132324 C54.91659794 67.37794692 55.45249481 59.13716587 55.4765625 49.53125 C55.49090383 48.16026301 55.50666636 46.78929023 55.52377319 45.41833496 C55.5652789 41.84194739 55.5905116 38.26564809 55.61126709 34.68908691 C55.64734697 28.93779424 55.7080503 23.18671828 55.76975632 17.43565369 C55.78882258 15.43147011 55.80005511 13.42721698 55.81118774 11.42297363 C55.82658096 9.60968567 55.82658096 9.60968567 55.84228516 7.75976562 C55.84878082 6.69294556 55.85527649 5.62612549 55.86196899 4.52697754 C56 2 56 2 57 0 C59.31243792 -0.02685412 61.6249627 -0.04632841 63.9375 -0.0625 C65.22527344 -0.07410156 66.51304687 -0.08570313 67.83984375 -0.09765625 C71 0 71 0 72 1 C72.08022366 2.992416 72.08856537 4.98775175 72.06933594 6.98168945 C72.05892273 8.26425125 72.04850952 9.54681305 72.03778076 10.86824036 C72.02051179 12.28326059 72.00269556 13.69827424 71.984375 15.11328125 C71.96767605 16.56284036 71.95101398 18.0123999 71.93438721 19.46195984 C71.89782213 22.51287103 71.8566059 25.56368396 71.81298828 28.61450195 C71.75848612 32.49302105 71.72164946 36.3714826 71.68935776 40.25024128 C71.66123013 43.25245123 71.62015707 46.25438995 71.57575226 49.25639915 C71.55675125 50.6838355 71.54235769 52.11134186 71.53295135 53.53887367 C71.43326088 67.30902066 70.49061446 77.78033351 60.61328125 87.71484375 C53.21241644 94.18645199 43.82641221 96.51716668 34.0546875 96.18359375 C23.46155859 95.23705942 13.8239218 91.93279252 6.46875 83.953125 C0.85516583 76.48825243 -0.13108663 68.29613446 -0.11352539 59.14672852 C-0.11367142 58.50197067 -0.11381744 57.85721283 -0.1139679 57.19291687 C-0.11327817 55.08821093 -0.10553042 52.98359649 -0.09765625 50.87890625 C-0.09578872 49.40917509 -0.0943664 47.93944331 -0.09336853 46.4697113 C-0.0895697 42.62120819 -0.07976221 38.77274344 -0.06866455 34.92425537 C-0.0583935 30.9892224 -0.05385876 27.05418317 -0.04882812 23.11914062 C-0.03813732 15.41274302 -0.02109292 7.70637691 0 0 Z " fill="#000000" transform="translate(920,709)"/>
<path d="M0 0 C5.81662241 -0.07458679 11.63296163 -0.12880761 17.44995117 -0.16479492 C19.42558649 -0.17980956 21.40118889 -0.20022751 23.37670898 -0.22631836 C26.22908695 -0.26302572 29.08102129 -0.27979993 31.93359375 -0.29296875 C32.80584091 -0.30845261 33.67808807 -0.32393646 34.57676697 -0.33988953 C44.18048046 -0.34247957 51.06902959 2.19237882 58.05078125 8.80859375 C64.42602592 15.97595299 65.49552774 23.92353451 65.3984375 33.25390625 C64.54110024 41.31455757 60.91294133 47.8300205 54.75 53.0625 C46.41612705 59.40981021 36.39328377 59.40528878 26.375 59.1875 C25.18003906 59.17396484 23.98507812 59.16042969 22.75390625 59.14648438 C19.835452 59.11146292 16.91797652 59.06234993 14 59 C14.01047363 59.98395752 14.02094727 60.96791504 14.03173828 61.98168945 C14.06794031 65.63253135 14.09090115 69.28335737 14.10986328 72.93432617 C14.11992041 74.51443144 14.13356785 76.0945181 14.15087891 77.67456055 C14.17514022 79.9458475 14.18648582 82.21688836 14.1953125 84.48828125 C14.20563507 85.19463211 14.21595764 85.90098297 14.22659302 86.6287384 C14.22743775 90.32197792 14.10720523 91.83919216 12 95 C9.3984375 95.29296875 9.3984375 95.29296875 6.375 95.1875 C4.87066406 95.14689453 4.87066406 95.14689453 3.3359375 95.10546875 C2.56507812 95.07066406 1.79421875 95.03585937 1 95 C1 94.34 1 93.68 1 93 C0.34 93 -0.32 93 -1 93 C-1.02313347 81.169619 -1.04092023 69.33924335 -1.05181217 57.50884438 C-1.05703879 52.01597929 -1.06413246 46.52312964 -1.07543945 41.03027344 C-1.08627614 35.73295311 -1.09227851 30.43564766 -1.09487724 25.13831711 C-1.09673007 23.11363872 -1.10034799 21.08896118 -1.10573006 19.06428909 C-1.11295083 16.23636339 -1.1139905 13.40849979 -1.11352539 10.58056641 C-1.11712067 9.73683975 -1.12071594 8.8931131 -1.12442017 8.02381897 C-1.11405216 2.22810432 -1.11405216 2.22810432 0 0 Z M14 14 C13.91209025 16.29151417 13.89305962 18.58572524 13.90234375 20.87890625 C13.9037587 21.5655687 13.90517365 22.25223114 13.90663147 22.95970154 C13.91224521 25.16067801 13.92479993 27.36155409 13.9375 29.5625 C13.94251324 31.05143083 13.94707645 32.54036324 13.95117188 34.02929688 C13.96221907 37.68623075 13.97949287 41.34310558 14 45 C17.70368247 46.85184124 22.11115612 46.22795081 26.1875 46.25 C27.12142578 46.270625 28.05535156 46.29125 29.01757812 46.3125 C34.81267758 46.34512547 38.89618586 45.80709778 44 43 C48.17116263 38.71610325 50.06122242 34.61641425 50.4375 28.6875 C50.31026359 23.60652601 48.5471491 19.64613931 45 16 C39.35349807 11.99162424 33.32050361 12.62447894 26.6875 12.75 C25.02364258 12.75773438 25.02364258 12.75773438 23.32617188 12.765625 C18.30881923 12.34283612 18.30881923 12.34283612 14 14 Z " fill="#000000" transform="translate(1038,709)"/>
<path d="M0 0 C2.31243792 -0.02685412 4.6249627 -0.04632841 6.9375 -0.0625 C8.22527344 -0.07410156 9.51304687 -0.08570313 10.83984375 -0.09765625 C14 0 14 0 15 1 C15.10587789 3.85017298 15.14677735 6.67624368 15.14526367 9.52709961 C15.14862228 10.42136154 15.1519809 11.31562347 15.15544128 12.23698425 C15.16498157 15.20878468 15.16689592 18.18052895 15.16796875 21.15234375 C15.17117916 23.20878625 15.17454306 25.26522852 15.17805481 27.32167053 C15.18405377 31.63852468 15.18589392 35.95535878 15.18530273 40.2722168 C15.18520106 45.8154033 15.19885533 51.35846185 15.21607494 56.901618 C15.2271701 61.15056453 15.22922271 65.39947988 15.22869301 69.64843941 C15.22987681 71.69265751 15.23432078 73.73687632 15.24202538 75.78108025 C15.25177544 78.63531439 15.24896707 81.48926761 15.24291992 84.34350586 C15.24853943 85.19501221 15.25415894 86.04651855 15.25994873 86.92382812 C15.22831529 92.77168471 15.22831529 92.77168471 13 95 C4.52517986 95.41007194 4.52517986 95.41007194 1 94 C-0.65875797 90.68248407 -0.12889303 86.97402946 -0.11352539 83.32763672 C-0.11374443 81.9812059 -0.11374443 81.9812059 -0.1139679 80.60757446 C-0.11326953 77.63158782 -0.10548067 74.65566325 -0.09765625 71.6796875 C-0.0957918 69.61988357 -0.09436802 67.56007919 -0.09336853 65.50027466 C-0.08954548 60.07182598 -0.07971699 54.64340395 -0.06866455 49.21496582 C-0.05844588 43.67847046 -0.05386993 38.14197081 -0.04882812 32.60546875 C-0.03809455 21.73696744 -0.02102065 10.86848594 0 0 Z " fill="#000000" transform="translate(217,709)"/>
<path d="" fill="#000000" transform="translate(0,0)"/>
</svg>
